<svg viewBox="473.0999999999999 286.93055555555554 630.7999999999997 275.1388888888887" fill="none" xmlns="http://www.w3.org/2000/svg" xmlns:xlink="http://www.w3.org/1999/xlink" overflow="visible" width="630.7999999999997px" height="275.1388888888887px"><g id="Master/Stickers/Books"><g id="Books"><g id="Group 28"><g id="Group 3"><mask id="mask085b5c240-5ae4-4e31-b3e9-55a644024eee" mask-type="alpha" maskUnits="userSpaceOnUse" x="475" y="424" width="557" height="131" fill="#ffffff"><path id="Clip 2" fill-rule="evenodd" clip-rule="evenodd" d="M475 424.141H1031.36V554.533H475V424.141Z" fill="#ffffff"/></mask><g mask="url(#mask085b5c240-5ae4-4e31-b3e9-55a644024eee)"><path id="Fill 1" fill-rule="evenodd" clip-rule="evenodd" d="M1031.36 424.141H540.003C504.103 424.141 475 453.33 475 489.337V489.338C475 525.343 504.103 554.534 540.003 554.534H1031.36V424.141Z" fill="#B6CCFC"/></g></g><path id="Fill 4" fill-rule="evenodd" clip-rule="evenodd" d="M1031.36 443.232H786.858C761.47 443.232 740.889 463.874 740.889 489.337C740.889 514.8 761.47 535.442 786.858 535.442H1031.36V443.232Z" fill="white"/><path id="Fill 6" fill-rule="evenodd" clip-rule="evenodd" d="M1099.93 293H608.572C572.672 293 543.57 322.189 543.57 358.196V358.197C543.57 394.202 572.672 423.393 608.572 423.393H1099.93V293Z" fill="#4965CC"/><path id="Fill 8" fill-rule="evenodd" clip-rule="evenodd" d="M1099.93 312.091H855.426C830.039 312.091 809.457 332.733 809.457 358.196V358.196C809.457 383.659 830.039 404.302 855.426 404.302H1099.93V312.091Z" fill="white"/><path id="Fill 10" fill-rule="evenodd" clip-rule="evenodd" d="M1099.93 337.828H815.463C814.137 337.828 813.061 336.749 813.061 335.42C813.061 334.09 814.137 333.011 815.463 333.011H1099.93C1101.26 333.011 1102.33 334.09 1102.33 335.42C1102.33 336.749 1101.26 337.828 1099.93 337.828" fill="#21211D"/><path id="Fill 12" fill-rule="evenodd" clip-rule="evenodd" d="M1099.93 360.605H809.458C808.132 360.605 807.057 359.526 807.057 358.196C807.057 356.866 808.132 355.788 809.458 355.788H1099.93C1101.26 355.788 1102.33 356.866 1102.33 358.196C1102.33 359.526 1101.26 360.605 1099.93 360.605" fill="#21211D"/><path id="Fill 14" fill-rule="evenodd" clip-rule="evenodd" d="M1099.93 382.189H815.463C814.137 382.189 813.061 381.11 813.061 379.78C813.061 378.45 814.137 377.372 815.463 377.372H1099.93C1101.26 377.372 1102.33 378.45 1102.33 379.78C1102.33 381.11 1101.26 382.189 1099.93 382.189" fill="#21211D"/><path id="Fill 16" fill-rule="evenodd" clip-rule="evenodd" d="M1032.57 469.565H748.106C746.78 469.565 745.703 468.486 745.703 467.156C745.703 465.826 746.78 464.748 748.106 464.748H1032.57C1033.9 464.748 1034.97 465.826 1034.97 467.156C1034.97 468.486 1033.9 469.565 1032.57 469.565" fill="#21211D"/><path id="Fill 18" fill-rule="evenodd" clip-rule="evenodd" d="M1032.57 492.341H742.098C740.773 492.341 739.697 491.263 739.697 489.933C739.697 488.603 740.773 487.525 742.098 487.525H1032.57C1033.9 487.525 1034.97 488.603 1034.97 489.933C1034.97 491.263 1033.9 492.341 1032.57 492.341" fill="#21211D"/><path id="Fill 20" fill-rule="evenodd" clip-rule="evenodd" d="M1032.57 513.926H748.106C746.78 513.926 745.703 512.847 745.703 511.518C745.703 510.188 746.78 509.109 748.106 509.109H1032.57C1033.9 509.109 1034.97 510.188 1034.97 511.518C1034.97 512.847 1033.9 513.926 1032.57 513.926" fill="#21211D"/><path id="Fill 22" fill-rule="evenodd" clip-rule="evenodd" d="M763.32 367.722H607.654C601.626 367.722 596.74 362.821 596.74 356.776C596.74 350.732 601.626 345.831 607.654 345.831H763.32C769.347 345.831 774.232 350.732 774.232 356.776C774.232 362.821 769.347 367.722 763.32 367.722" fill="#B6CCFC"/><path id="Fill 24" fill-rule="evenodd" clip-rule="evenodd" d="M698.153 494.131H574.309C568.281 494.131 563.395 489.23 563.395 483.185C563.395 477.141 568.281 472.239 574.309 472.239H698.153C704.18 472.239 709.065 477.141 709.065 483.185C709.065 489.23 704.18 494.131 698.153 494.131" fill="#4965CC"/><path id="Fill 26" fill-rule="evenodd" clip-rule="evenodd" d="M543.569 483.185C543.569 492.53 536.015 500.107 526.698 500.107C517.379 500.107 509.826 492.53 509.826 483.185C509.826 473.841 517.379 466.264 526.698 466.264C536.015 466.264 543.569 473.841 543.569 483.185" fill="#4965CC"/></g></g></g></svg>